{
  "asset": {
    "version": "2.0",
    "generator": "THREE.GLTFExporter"
  },
  "scenes": [
    {
      "nodes": [
        0
      ]
    }
  ],
  "scene": 0,
  "nodes": [
    {
      "children": [
        5
      ],
      "matrix": [
        0.01,
        0,
        0,
        0,
        0,
        0.01,
        0,
        0,
        0,
        0,
        0.01,
        0,
        0,
        0,
        0,
        1
      ]
    },
    {
      "matrix": [
        -0.004036032685650193,
        -2.9020624791164317e-16,
        1.306972749955466,
        0,
        1.306972749955466,
        -8.961792831497102e-19,
        0.004036032685650193,
        0,
        0,
        1.3069789817307669,
        2.9020763164372784e-16,
        0,
        -0.32240823652267636,
        -434.3337886199197,
        -143.3697523012068,
        1
      ],
      "name": "Hand Element",
      "mesh": 0
    },
    {
      "matrix": [
        0.7671547655695098,
        0.6143637747209422,
        -0.18447416614427645,
        0,
        -0.6250920018671187,
        0.7805510804564672,
        0,
        0,
        0.14399150970022082,
        0.1153133258078932,
        0.9828373629575617,
        0,
        0,
        0,
        0,
        1
      ],
      "name": "Directional Light",
      "extensions": {
        "KHR_lights_punctual": {
          "light": 0
        }
      }
    },
    {
      "matrix": [
        1,
        0,
        0,
        0,
        0,
        1,
        -5.684341886080795e-17,
        0,
        0,
        5.684341886080795e-17,
        1,
        0,
        -216.42120476975677,
        269.61177644676303,
        1000.000000000138,
        1
      ],
      "camera": 0
    },
    {
      "matrix": [
        1,
        0,
        0,
        0,
        0,
        1,
        0,
        0,
        0,
        0,
        1,
        0,
        0,
        1,
        0,
        1
      ],
      "name": "Default Ambient Light"
    },
    {
      "name": "Scene 1",
      "children": [
        1,
        2,
        3,
        4
      ]
    }
  ],
  "bufferViews": [
    {
      "buffer": 0,
      "byteOffset": 0,
      "byteLength": 52680,
      "target": 34962,
      "byteStride": 12
    },
    {
      "buffer": 0,
      "byteOffset": 52680,
      "byteLength": 52680,
      "target": 34962,
      "byteStride": 12
    },
    {
      "buffer": 0,
      "byteOffset": 105360,
      "byteLength": 35120,
      "target": 34962,
      "byteStride": 8
    },
    {
      "buffer": 0,
      "byteOffset": 140480,
      "byteLength": 96984,
      "target": 34963
    }
  ],
  "buffers": [
    {
      "byteLength": 237464,
      "uri": "data:application/octet-stream;base64,"
    }
  ],
  "accessors": [
    {
      "bufferView": 0,
      "componentType": 5126,
      "count": 4390,
      "max": [
        0.9999158978462219,
        0.9999604821205139,
        0.9981294274330139
      ],
      "min": [
        -0.9996408820152283,
        -0.9999991655349731,
        -0.9567567110061646
      ],
      "type": "VEC3"
    },
    {
      "bufferView": 1,
      "componentType": 5126,
      "count": 4390,
      "max": [
        187.72543334960938,
        76.12022399902344,
        640.0612182617188
      ],
      "min": [
        -129.08270263671875,
        -154.72860717773438,
        -6.028392314910889
      ],
      "type": "VEC3"
    },
    {
      "bufferView": 2,
      "componentType": 5126,
      "count": 4390,
      "max": [
        0.9847000241279602,
        0.982699990272522
      ],
      "min": [
        0.014000000432133675,
        0.0140000581741333
      ],
      "type": "VEC2"
    },
    {
      "bufferView": 3,
      "componentType": 5125,
      "count": 24246,
      "max": [
        4389
      ],
      "min": [
        0
      ],
      "type": "SCALAR"
    }
  ],
  "meshes": [
    {
      "primitives": [
        {
          "mode": 4,
          "attributes": {
            "NORMAL": 0,
            "POSITION": 1,
            "TEXCOORD_0": 2
          },
          "extras": {
            "parameters": {
              "width": 316.80814197897035,
              "height": 230.84882571031596,
              "depth": 646.089632527183,
              "subdivisions": 0
            },
            "type": "NonParametricGeometry"
          },
          "indices": 3
        }
      ]
    }
  ],
  "extensions": {
    "KHR_lights_punctual": {
      "lights": [
        {
          "name": "Directional Light",
          "color": [
            1,
            1,
            1
          ],
          "intensity": 0.7,
          "type": "directional"
        }
      ]
    }
  },
  "cameras": [
    {
      "type": "orthographic",
      "orthographic": {
        "xmag": 30.27412141512108,
        "ymag": 17.23943025027728,
        "zfar": 100000,
        "znear": 0
      }
    }
  ],
  "extensionsUsed": [
    "KHR_lights_punctual"
  ]
}