<?xml version="1.0" encoding="UTF-8"?>
<svg id="Layer_2" data-name="Layer 2" xmlns="http://www.w3.org/2000/svg" viewBox="0 0 2504.22 1511.58">
  <defs>
    <style>
      .cls-1 {
        opacity: .95;
        stroke: #e6aac8;
      }

      .cls-1, .cls-2 {
        stroke-miterlimit: 10;
      }

      .cls-1, .cls-2, .cls-3, .cls-4, .cls-5, .cls-6, .cls-7 {
        fill: none;
      }

      .cls-1, .cls-3, .cls-4, .cls-5, .cls-6, .cls-7 {
        stroke-width: 5px;
      }

      .cls-2 {
        stroke-width: 6px;
      }

      .cls-2, .cls-6 {
        stroke: #fff;
      }

      .cls-3 {
        stroke: #e072af;
      }

      .cls-4 {
        stroke: #000;
      }

      .cls-5 {
        stroke: #999;
      }

      .cls-7 {
        stroke: #ffd0ed;
      }

      .cls-8 {
        opacity: .5;
      }

      .cls-9 {
        fill: #fee6fa;
        stroke-width: 0px;
      }
    </style>
  </defs>
  <g id="Layer_1-2" data-name="Layer 1">
    <g>
      <g id="Rectangle_82" data-name="Rectangle 82" class="cls-8">
        <rect class="cls-9" x=".53" y="7.96" width="2500" height="1500"/>
        <rect class="cls-9" x="1.01" y="8.59" width="2499.02" height="1498.74"/>
      </g>
      <path class="cls-5" d="M1750.49,7.25c.12.14.23.29.34.43,44.74,57.67,106.99,110.37,188.7,120.84,194.91,24.97,383.94-137.12,511.91-65.17,127.97,71.94-65.68,366.04-37.88,552.27,12.46,83.46,45.98,139.97,88.31,177.88.14.13.29.26.43.38"/>
      <path class="cls-4" d="M.52,642.55c.14.02.29.03.43.05,101.32,10.98,233.63,63.06,261.39,249.03,27.8,186.23-165.85,480.33-37.88,552.27,127.97,71.95,317-90.14,511.91-65.17,86.36,11.06,150.98,69.29,196.16,130.72.11.14.22.29.32.43"/>
      <path class="cls-6" d="M908.39,1509.88c-.11-.15-.23-.29-.35-.43-44.37-55.38-105.17-104.95-184.15-115.07-194.91-24.97-383.94,137.11-511.91,65.17-127.97-71.95,65.69-366.05,37.88-552.28-26.63-178.41-149.5-233.61-248.91-247.49-.15-.02-.29-.04-.43-.06"/>
      <path class="cls-7" d="M858.28,1509.88c-.13-.14-.26-.29-.4-.43-42.25-46.02-96.96-84.29-165.28-93.04-194.9-24.97-383.93,137.11-511.9,65.17-127.97-71.95,65.68-366.05,37.88-552.27-23.9-160.07-125.25-220.96-217.63-241.81-.15-.04-.29-.07-.43-.1"/>
      <path class="cls-2" d="M1581.51,7.25c.07.14.14.29.21.43,39.19,80.4,120.04,204.8,250.53,221.52,194.91,24.97,383.94-137.11,511.91-65.17,127.97,71.95-65.68,366.05-37.88,552.27,22.01,147.42,109.71,210.71,195.59,236.08.14.05.29.09.43.13"/>
      <path class="cls-3" d="M1606.47,7.25c.07.14.15.28.22.43,41.79,79.89,120.36,189.4,242.2,205.01,194.91,24.97,383.94-137.11,511.91-65.17,127.97,71.95-65.68,366.05-37.88,552.27,20.58,137.9,98.65,202.19,178.95,230.69.14.05.28.1.43.15"/>
      <path class="cls-1" d="M2502.3,718.26c-.15-.18-.29-.37-.43-.56-.45-.59-.9-1.18-1.34-1.78-.17-.21-.34-.43-.49-.65-26.42-35.32-46.44-81.57-55.45-141.94-13.74-91.99,26.57-210.31,55.45-315.17.16-.6.33-1.19.49-1.79"/>
      <path class="cls-1" d="M2500.53,34.69c-.16-.17-.32-.33-.49-.49-5.02-4.97-10.85-9.36-17.58-13.14-9.68-5.44-19.71-9.54-30.07-12.48-.75-.22-1.5-.42-2.25-.62-.35-.1-.69-.19-1.04-.28-.57-.15-1.14-.3-1.71-.43-27.96-6.91-58.22-5.74-90.33,0-.78.13-1.57.28-2.36.43-.49.09-.97.18-1.46.28-1.07.2-2.14.4-3.22.62-111.29,21.96-243.96,95.01-379.46,77.65-60.54-7.75-110.39-38.68-150.35-77.65-.21-.21-.42-.41-.63-.62-.1-.09-.19-.19-.29-.28-.15-.14-.3-.29-.44-.43"/>
    </g>
  </g>
</svg>