<?xml version="1.0" encoding="UTF-8"?>
<svg id="Layer_2" data-name="Layer 2" xmlns="http://www.w3.org/2000/svg" viewBox="0 0 1082.43 296.38">
  <defs>
    <style>
      .cls-1 {
        letter-spacing: .05em;
      }

      .cls-2 {
        letter-spacing: .01em;
      }

      .cls-3 {
        letter-spacing: .02em;
      }

      .cls-4 {
        font-family: -apple-system, BlinkMacSystemFont, sans-serif;
        font-size: 200px;
        font-variation-settings: 'wdth' 100, 'opsz' 28, 'wght' 274;
        font-weight: 300;
      }

      .cls-5 {
        fill: #ed64a6;
        stroke-width: 0px;
      }
    </style>
  </defs>
  <g id="Layer_1-2" data-name="Layer 1">
    <g>
      <g>
        <path class="cls-5" d="M113.19,114.67l-.1.11,43.69,47.49.05-.05-43.63-47.55Z"/>
        <path class="cls-5" d="M205.72,20.45C192.53,7.26,174.99,0,156.34,0c-8.31,0-16.45,1.45-24.17,4.3-6.9,2.54-13.3,6.14-19.08,10.71-5.78-4.57-12.19-8.16-19.08-10.71-7.73-2.85-15.86-4.3-24.17-4.3-18.65,0-36.19,7.26-49.38,20.45C7.26,33.64,0,51.18,0,69.83c0,1.02.02,2.02.06,2.99.13,3.22.5,6.47,1.08,9.63,0,.05.02.1.03.14v.08c1.82,9.74,6.37,18.8,13.17,26.2l49,53.4,3.03,3.3,46.72,50.92,46.73-50.92h0s52.02-56.69,52.02-56.69c6.8-7.41,11.35-16.47,13.16-26.22v-.06s.03-.09.04-.13c.58-3.18.94-6.42,1.08-9.63.04-.97.06-1.98.06-3,0-18.65-7.27-36.19-20.45-49.38ZM113.09,20.82c14.08,12.42,22.11,30.18,22.11,49.01,0,.95-.02,1.89-.06,2.8,0,.12-.02.34-.08.69l-.02.16c-.09.52-.21,1.14-.37,1.85-1.89,8.2-5.94,15.86-11.71,22.14l-9.76,10.6-.11.12-9.87-10.72c-5.78-6.28-9.83-13.93-11.71-22.14-.16-.71-.29-1.33-.37-1.85h0s-.02-.16-.02-.16c-.05-.35-.07-.57-.07-.69-.04-.91-.06-1.85-.06-2.8,0-18.83,8.04-36.58,22.11-49.01ZM17.62,105.85c-6.23-6.79-10.4-15.09-12.05-23.98l-.04-.2c-.54-2.98-.89-6.01-1.01-9.03-.04-.91-.06-1.85-.06-2.8,0-17.46,6.8-33.87,19.15-46.22,12.35-12.35,28.76-19.15,46.22-19.15,14.39,0,28.41,4.77,39.77,13.49-14.71,13.25-23.09,32-23.09,51.88,0,1.02.02,2.02.06,3,.01.33.05.72.12,1.17v.08s.02.1.04.16c.1.6.24,1.31.42,2.08,2.06,8.96,6.48,17.31,12.78,24.16l10.12,11-43.69,47.49-48.74-53.12ZM156.78,162.27l-43.7,47.62-43.69-47.62,43.7-47.49.1-.11,43.63,47.55-.05.05ZM221.64,72.64c-.12,3.01-.46,6.05-1.01,9.03l-.04.19c-1.65,8.91-5.82,17.21-12.05,24l-48.69,53.07-.05.05-43.69-47.49.1-.11,10.01-10.88c6.3-6.85,10.72-15.2,12.78-24.16.18-.78.32-1.48.42-2.09.01-.06.02-.12.03-.16v-.1c.08-.44.12-.82.13-1.16.04-.98.06-1.98.06-3,0-19.88-8.38-38.63-23.09-51.88,11.36-8.72,25.38-13.49,39.77-13.49,17.46,0,33.87,6.8,46.22,19.15,12.35,12.35,19.15,28.76,19.15,46.22,0,.95-.02,1.9-.06,2.81Z"/>
      </g>
      <text class="cls-4" transform="translate(250.65 178.7)"><tspan class="cls-2" x="0" y="0">P</tspan><tspan class="cls-1" x="114.39" y="0">ainCa</tspan><tspan class="cls-3" x="636.95" y="0">r</tspan><tspan class="cls-1" x="701.25" y="0">e</tspan></text>
    </g>
  </g>
</svg>